<?xml version="1.0" standalone="no"?>
<!DOCTYPE svg PUBLIC "-//W3C//DTD SVG 20010904//EN"
 "http://www.w3.org/TR/2001/REC-SVG-20010904/DTD/svg10.dtd">
<svg version="1.0" xmlns="http://www.w3.org/2000/svg"
 width="1024.000000pt" height="1024.000000pt" viewBox="0 0 1024.000000 1024.000000"
 preserveAspectRatio="xMidYMid meet">

<g transform="translate(0.000000,1024.000000) scale(0.100000,-0.100000)"
fill="#000000" stroke="none">
<path d="M4930 10157 c-3 -2 -59 -7 -125 -10 -133 -6 -312 -27 -510 -58 -169
-27 -188 -30 -250 -43 -22 -5 -293 -73 -340 -86 -16 -4 -50 -15 -74 -24 -24
-9 -50 -16 -57 -16 -13 0 -203 -72 -374 -142 -96 -39 -422 -187 -435 -198 -5
-4 -35 -21 -65 -38 -89 -48 -130 -72 -187 -108 -29 -19 -55 -34 -58 -34 -10 0
-329 -226 -430 -305 -1025 -797 -1708 -1971 -1889 -3246 -40 -278 -50 -425
-50 -729 0 -304 10 -451 50 -729 199 -1399 1000 -2668 2184 -3461 469 -315
1036 -565 1582 -699 426 -105 764 -145 1218 -145 360 0 594 20 918 79 1635
300 3038 1413 3702 2940 720 1656 501 3574 -575 5020 -318 429 -716 812 -1188
1144 -60 42 -116 80 -125 86 -10 5 -30 19 -47 30 -29 20 -158 98 -200 121
-123 67 -179 95 -324 163 -220 104 -590 249 -721 283 -19 5 -48 13 -65 18 -48
14 -238 61 -265 66 -14 3 -33 7 -42 10 -22 6 -55 13 -98 20 -19 3 -89 14 -155
24 -232 38 -488 61 -745 67 -140 3 -257 3 -260 0z m460 -827 c804 -56 1547
-321 2184 -778 375 -270 735 -634 1002 -1014 688 -979 923 -2215 647 -3393
-39 -169 -90 -269 -187 -368 -63 -65 -180 -139 -261 -166 -143 -47 -865 -129
-1505 -172 -241 -16 -237 -17 -153 54 83 71 180 179 238 267 90 135 171 331
155 374 -20 55 -80 46 -111 -17 -38 -75 -105 -160 -188 -240 -131 -125 -274
-210 -461 -273 -78 -26 -97 -29 -220 -29 -127 1 -140 3 -218 32 -46 18 -163
80 -262 138 -199 119 -288 159 -393 181 -39 9 -73 17 -75 19 -10 9 153 77 218
91 101 21 163 9 349 -66 238 -96 336 -100 496 -21 127 63 241 177 193 193 -7
3 -47 -13 -90 -34 -100 -50 -198 -71 -267 -58 -69 13 -98 29 -228 126 -215
162 -328 205 -537 203 -67 0 -146 -6 -176 -12 -53 -12 -57 -11 -109 20 -101
60 -171 78 -311 78 -140 0 -211 -18 -311 -78 -54 -32 -54 -32 -119 -20 -36 7
-115 12 -176 13 -198 0 -323 -48 -534 -206 -63 -48 -135 -96 -160 -107 -88
-39 -227 -20 -348 48 -56 31 -82 32 -82 4 0 -42 161 -163 264 -199 132 -47
221 -36 446 55 173 69 240 81 338 61 72 -15 159 -50 196 -78 18 -14 13 -17
-60 -33 -99 -21 -206 -71 -378 -174 -159 -96 -259 -145 -341 -166 -320 -82
-791 153 -997 498 -21 34 -42 68 -48 75 -16 18 -55 14 -75 -8 -17 -19 -18 -26
-6 -68 51 -196 210 -436 385 -585 l74 -62 -35 -3 c-93 -9 -912 63 -1308 114
-361 46 -413 60 -540 145 -124 83 -220 211 -264 349 -80 251 -141 720 -141
1080 0 1584 876 3020 2290 3754 660 342 1457 507 2200 456z m-1541 -6526 c73
-21 144 -92 165 -164 13 -44 14 -78 6 -216 -28 -499 67 -993 271 -1411 69
-141 80 -173 57 -173 -26 0 -213 222 -315 375 -213 318 -375 698 -467 1095
-63 273 -60 332 23 422 34 36 61 55 101 68 68 24 92 24 159 4z m2724 -22 c54
-29 99 -82 118 -139 23 -71 -8 -262 -88 -538 -128 -443 -375 -895 -652 -1198
-48 -52 -91 -74 -91 -46 0 6 18 44 39 83 90 164 187 431 235 648 60 269 81
506 71 811 l-7 217 27 55 c65 133 215 179 348 107z m-4648 -2 c48 -20 109 -85
123 -131 6 -19 16 -82 21 -142 36 -366 228 -710 591 -1060 178 -171 139 -178
-130 -24 -438 250 -743 577 -893 958 -46 115 -58 175 -46 229 33 156 187 234
334 170z m6588 3 c47 -19 110 -89 125 -141 19 -63 14 -114 -19 -209 -125 -355
-399 -681 -784 -932 -111 -73 -335 -191 -361 -191 -31 0 -11 38 47 85 128 105
292 293 406 467 144 220 243 495 243 677 0 198 164 314 343 244z m-5587 -19
c30 -18 60 -48 79 -78 l30 -49 6 -206 c5 -172 11 -225 33 -322 77 -338 233
-659 477 -982 49 -65 89 -122 89 -127 0 -51 -184 91 -405 314 -270 271 -449
533 -566 826 -50 127 -109 353 -109 421 0 92 49 172 132 214 74 37 164 33 234
-11z m4615 24 c53 -15 113 -68 139 -123 26 -54 27 -120 5 -225 -83 -390 -315
-788 -660 -1133 -165 -165 -351 -317 -386 -317 -23 0 -25 23 -4 40 9 7 51 61
94 120 226 305 399 668 461 962 25 123 41 306 34 389 -10 99 8 159 65 220 67
73 155 96 252 67z m-1957 -554 c17 -17 20 -42 8 -61 -13 -21 -199 -73 -261
-73 -61 0 -81 11 -81 46 0 29 54 74 88 74 15 1 50 7 77 15 70 19 150 19 169
-1z m-889 -59 c46 -45 27 -127 -29 -127 -40 0 -61 25 -61 73 0 31 6 46 24 60
30 25 37 24 66 -6z m923 -122 c78 -9 82 -20 68 -165 -8 -79 -16 -122 -26 -132
-11 -10 -75 -17 -241 -27 -124 -7 -233 -9 -243 -6 -24 9 -45 66 -59 158 -10
71 -9 81 6 96 9 9 29 18 44 19 16 1 61 12 101 24 105 32 248 46 350 33z m-702
-59 c8 -32 -1 -52 -28 -63 -13 -5 -47 -25 -76 -43 l-53 -35 78 -15 c136 -27
191 -68 153 -114 -16 -19 -44 -17 -110 6 -30 11 -74 19 -97 20 l-43 0 0 -132
c0 -73 5 -179 12 -235 9 -82 9 -105 -1 -117 -16 -19 -55 -21 -69 -3 -17 21
-32 145 -39 320 -3 92 -7 167 -8 167 -22 0 -107 -35 -120 -50 -23 -25 -66 -26
-95 -2 -47 38 -13 74 148 159 58 30 65 43 25 43 -47 0 -137 28 -150 47 -17 22
-16 27 5 54 19 22 19 22 85 6 83 -21 193 -21 277 1 77 21 98 18 106 -14z m893
-390 c29 -37 36 -116 16 -199 -22 -97 -132 -324 -159 -330 -17 -4 -282 -14
-336 -14 -183 3 -290 12 -300 24 -9 11 -10 64 -5 205 6 161 10 192 24 199 9 5
47 11 85 15 94 9 430 71 541 100 116 30 110 30 134 0z"/>
<path d="M4228 9106 c-70 -19 -123 -60 -153 -119 -92 -186 75 -383 279 -326
53 15 121 80 142 137 33 90 54 99 125 54 55 -36 116 -104 154 -173 15 -30 33
-57 39 -61 34 -22 31 53 -5 125 -36 71 -131 188 -197 243 -74 61 -165 107
-240 123 -65 14 -84 13 -144 -3z"/>
<path d="M5860 9110 c-155 -32 -353 -203 -435 -376 -25 -53 -31 -119 -11 -119
5 0 26 29 48 65 47 77 128 163 176 186 48 23 75 8 96 -52 23 -67 58 -108 118
-138 224 -112 444 164 281 353 -60 70 -168 102 -273 81z"/>
<path d="M2995 8389 c-134 -10 -298 -36 -342 -54 -32 -14 -46 -44 -20 -46 6 0
131 -4 277 -9 283 -9 436 -25 620 -66 509 -112 1012 -413 1284 -769 153 -200
179 -187 198 104 8 121 8 214 0 332 -10 152 -13 164 -34 181 -60 45 -379 149
-634 207 -488 110 -940 150 -1349 120z"/>
<path d="M6655 8390 c-370 -31 -896 -137 -1192 -241 -152 -54 -212 -85 -224
-116 -16 -41 -23 -429 -11 -553 22 -213 52 -221 182 -50 180 237 416 421 750
589 359 179 653 245 1167 261 150 5 278 12 283 15 19 12 -10 34 -64 50 -145
41 -633 66 -891 45z"/>
<path d="M2961 8024 c-347 -58 -675 -273 -877 -575 -142 -212 -210 -424 -220
-684 -12 -288 62 -551 221 -791 264 -397 751 -630 1218 -584 328 32 598 159
827 389 190 191 307 411 367 692 24 117 24 371 0 489 -59 277 -179 502 -373
696 -193 192 -447 323 -713 368 -116 20 -333 19 -450 0z m489 -133 c441 -100
787 -434 907 -878 25 -91 27 -113 27 -298 1 -222 -10 -283 -77 -450 -137 -341
-429 -607 -778 -708 -281 -82 -617 -53 -871 74 -175 87 -352 239 -456 392
-476 696 -133 1635 678 1856 41 11 107 25 145 30 102 14 324 5 425 -18z"/>
<path d="M6818 8024 c-277 -50 -546 -196 -738 -401 -436 -466 -482 -1164 -110
-1685 70 -99 213 -241 312 -312 335 -238 787 -304 1183 -174 304 101 564 312
730 593 468 795 -11 1822 -924 1979 -116 20 -345 20 -453 0z m492 -133 c479
-108 844 -494 926 -979 24 -139 15 -362 -20 -495 -74 -285 -256 -542 -499
-704 -709 -473 -1675 -80 -1848 752 -112 541 146 1078 641 1328 95 48 240 94
350 113 113 18 336 11 450 -15z"/>
<path d="M6890 7475 c-155 -31 -275 -97 -395 -219 -145 -146 -212 -298 -222
-502 -11 -230 64 -430 223 -588 148 -149 336 -226 549 -226 226 0 408 80 568
249 130 139 196 296 204 491 7 168 -24 294 -108 438 -43 73 -188 217 -262 261
-167 98 -370 134 -557 96z"/>
<path d="M2068 7892 c-304 -313 -503 -711 -564 -1127 -9 -60 -18 -112 -20
-114 -2 -2 -34 4 -70 14 -65 17 -67 17 -81 0 -7 -11 -13 -22 -13 -26 0 -18 32
-36 98 -53 l72 -18 0 -87 0 -87 -107 1 -108 0 -3 -28 c-4 -34 -1 -35 123 -44
l99 -8 12 -85 c7 -47 11 -86 10 -88 -2 -1 -59 -9 -126 -17 -75 -9 -127 -19
-132 -27 -12 -19 -10 -34 7 -48 12 -10 41 -10 143 1 l128 14 23 -85 c13 -47
23 -91 24 -99 2 -10 -39 -28 -135 -58 -108 -35 -138 -48 -143 -64 -5 -13 -1
-27 9 -37 14 -14 28 -12 158 30 l142 45 38 -91 c21 -50 38 -94 38 -97 0 -3
-61 -34 -136 -69 -75 -35 -142 -70 -149 -77 -16 -16 -9 -49 12 -58 9 -3 80 25
161 65 l146 70 43 -78 c23 -42 43 -81 43 -87 0 -5 -63 -50 -140 -100 -121 -78
-140 -93 -140 -116 0 -16 7 -29 16 -33 18 -7 47 9 204 111 l105 69 48 -75 49
-75 -126 -121 c-70 -66 -127 -127 -126 -136 0 -19 19 -39 37 -39 8 0 70 54
139 120 l126 119 32 -16 c38 -20 113 -20 152 0 86 44 120 159 71 239 -12 20
-56 78 -98 130 -416 510 -568 1067 -443 1627 64 284 211 585 402 822 34 43 62
80 62 83 0 18 -26 -4 -112 -92z"/>
<path d="M8056 7978 c5 -7 33 -42 63 -78 185 -218 346 -555 413 -861 19 -91
22 -133 23 -334 0 -204 -3 -242 -23 -340 -69 -320 -220 -624 -460 -921 -110
-136 -112 -140 -112 -204 0 -72 31 -124 94 -157 38 -20 114 -20 152 0 l29 15
125 -119 c69 -65 132 -118 140 -119 20 0 40 19 40 38 0 8 -57 69 -127 136
l-127 123 45 71 c24 39 48 71 52 72 4 0 71 -41 149 -92 146 -96 168 -102 176
-50 3 18 -22 38 -142 117 l-146 95 45 83 c25 45 50 81 56 79 6 -2 72 -32 146
-67 110 -53 139 -63 155 -54 12 6 18 19 16 32 -2 17 -33 37 -145 91 -79 38
-143 74 -143 80 0 6 16 49 36 97 l36 86 136 -43 c136 -43 165 -46 176 -19 11
31 -9 43 -137 85 -73 23 -135 45 -140 49 -4 4 5 50 19 102 l27 95 128 -14
c132 -15 159 -11 159 23 0 26 -33 38 -146 51 -64 7 -119 15 -121 18 -2 2 1 42
8 88 l12 85 101 7 c109 7 133 18 121 56 -7 21 -11 22 -111 18 l-104 -4 0 87 0
87 68 18 c79 20 92 29 92 59 0 32 -25 38 -88 20 -30 -9 -60 -14 -67 -11 -7 2
-15 34 -19 78 -30 337 -215 750 -474 1058 -86 103 -184 200 -202 200 -6 0 -8
-5 -4 -12z"/>
<path d="M4927 5522 c-15 -16 -17 -50 -17 -275 l0 -257 -70 59 c-39 33 -87 67
-106 76 -33 15 -37 15 -60 0 -51 -33 -44 -81 18 -118 57 -34 136 -116 195
-202 53 -77 87 -93 124 -59 18 16 19 36 19 389 0 348 -1 373 -18 388 -24 22
-65 21 -85 -1z"/>
<path d="M5234 5532 c-31 -20 -34 -54 -34 -396 0 -202 4 -355 10 -371 11 -28
44 -45 73 -37 10 2 41 39 70 81 58 87 125 157 186 195 54 35 70 66 48 100 -9
13 -26 27 -37 31 -27 8 -91 -29 -164 -96 l-56 -51 0 256 c0 243 -1 257 -20
276 -20 20 -56 26 -76 12z"/>
<path d="M5390 1953 c-14 -2 -60 -14 -103 -25 l-78 -21 6 -41 c4 -22 10 -44
14 -47 7 -6 347 14 354 21 2 3 7 31 9 63 l5 57 -91 -1 c-50 -1 -102 -4 -116
-6z"/>
<path d="M5670 1505 c-30 -7 -90 -21 -132 -30 l-78 -17 0 -49 c0 -44 2 -49 23
-49 61 1 163 23 207 45 49 25 50 26 50 70 0 25 -3 45 -7 44 -5 0 -33 -7 -63
-14z"/>
<path d="M5228 1422 l-98 -15 0 -39 0 -38 38 5 c20 2 72 7 115 11 l77 6 0 44
c0 51 11 48 -132 26z"/>
<path d="M5638 1285 c-2 -3 -46 -9 -97 -14 -52 -6 -95 -12 -97 -14 -2 -2 -10
-25 -18 -51 l-14 -47 101 3 102 3 33 63 c30 56 31 62 14 62 -10 0 -21 -2 -24
-5z"/>
<path d="M5178 1243 c-54 -4 -57 -5 -63 -34 -4 -17 -4 -33 -1 -37 4 -3 49 -8
100 -10 l93 -4 16 41 c10 23 17 44 17 46 0 5 -59 4 -162 -2z"/>
</g>
</svg>
